<svg width="9" height="13" viewBox="0 0 9 13" fill="none" xmlns="http://www.w3.org/2000/svg">
<path d="M4.65893 0.00270954C2.10079 -0.086261 0 2.02734 0 4.64728C0 7.62061 2.76487 9.77846 4.31458 12.8817C4.39326 13.0393 4.61304 13.0395 4.69199 12.882C6.09393 10.0896 8.49002 8.21724 8.93407 5.52716C9.39384 2.74346 7.39359 0.0978561 4.65893 0.00270954ZM4.50306 7.08153C3.20039 7.08153 2.14433 5.99163 2.14433 4.64728C2.14433 3.30292 3.20041 2.21303 4.50306 2.21303C5.80574 2.21303 6.86183 3.30292 6.86183 4.64728C6.86183 5.99163 5.80574 7.08153 4.50306 7.08153Z" fill="white"/>
</svg>
