<svg width="7" height="13" viewBox="0 0 7 13" fill="none" xmlns="http://www.w3.org/2000/svg">
<path d="M5.66731 0H1.3558C0.622808 0 0 0.608796 0 1.35523V11.6463C0 12.3928 0.60963 13 1.34263 13L5.66123 12.9953C6.39412 12.9953 6.99372 12.3879 6.99372 11.6414L7 1.35451C6.9999 0.605388 6.40324 0 5.66731 0ZM2.8887 0.812519H4.13959C4.24947 0.812519 4.33898 0.903384 4.33898 1.01562C4.33898 1.12786 4.24947 1.21873 4.13959 1.21873H2.8887C2.77851 1.21873 2.68931 1.12786 2.68931 1.01562C2.68931 0.903384 2.77851 0.812519 2.8887 0.812519ZM2.13705 0.877157C2.21095 0.801987 2.34546 0.800955 2.41926 0.877157C2.45626 0.914743 2.47816 0.967506 2.47816 1.02141C2.47816 1.07427 2.45626 1.12693 2.41926 1.16462C2.38246 1.20231 2.33046 1.22451 2.27866 1.22451C2.22585 1.22451 2.17506 1.20231 2.13705 1.16462C2.10025 1.12704 2.07927 1.07427 2.07927 1.02141C2.07917 0.967506 2.10025 0.914743 2.13705 0.877157ZM3.4739 12.5974C3.14486 12.5974 2.87724 12.3246 2.87724 11.9895C2.87724 11.6544 3.14486 11.3817 3.4739 11.3817C3.80294 11.3817 4.07055 11.6544 4.07055 11.9895C4.07055 12.3246 3.80284 12.5974 3.4739 12.5974ZM6.38104 10.9685H0.697922V1.92975H6.38104V10.9685Z" fill="white"/>
</svg>
