<svg width="18" height="14" viewBox="0 0 18 14" fill="none" xmlns="http://www.w3.org/2000/svg">
<path d="M18 1.65738C17.3306 1.93846 16.6174 2.12477 15.8737 2.21523C16.6388 1.778 17.2226 1.09092 17.4971 0.262769C16.7839 0.669846 15.9964 0.957385 15.1571 1.11785C14.4799 0.427539 13.5146 0 12.4616 0C10.4186 0 8.77387 1.58738 8.77387 3.53339C8.77387 3.81339 8.79862 4.08262 8.85938 4.33892C5.7915 4.19569 3.07687 2.78815 1.25325 0.644C0.934875 1.17277 0.748125 1.778 0.748125 2.42954C0.748125 3.65292 1.40625 4.73738 2.38725 5.36523C1.79437 5.35446 1.21275 5.18969 0.72 4.93015C0.72 4.94092 0.72 4.95492 0.72 4.96892C0.72 6.68554 1.99912 8.11139 3.6765 8.43985C3.37612 8.51846 3.04875 8.55615 2.709 8.55615C2.47275 8.55615 2.23425 8.54323 2.01038 8.49585C2.4885 9.89477 3.84525 10.9232 5.4585 10.9566C4.203 11.8968 2.60888 12.4632 0.883125 12.4632C0.5805 12.4632 0.29025 12.4503 0 12.4148C1.63462 13.4238 3.57188 14 5.661 14C12.4515 14 16.164 8.61539 16.164 3.948C16.164 3.79185 16.1584 3.64108 16.1505 3.49138C16.8829 2.99385 17.4982 2.37246 18 1.65738Z" fill="white"/>
</svg>
