<svg width="14" height="18" viewBox="0 0 14 18" fill="none" xmlns="http://www.w3.org/2000/svg">
<path d="M13.7578 9.1129C13.5865 8.30477 12.9774 7.70865 12.2443 7.61992C10.5088 7.4095 8.75128 7.40851 7.00238 7.4095C5.25274 7.40851 3.49561 7.4095 1.75951 7.61992C1.02681 7.70885 0.418112 8.30497 0.246917 9.1129C0.00292641 10.2636 0 11.5198 0 12.7047C0 13.8896 2.18035e-08 15.1455 0.24399 16.2963C0.415186 17.1042 1.02388 17.7003 1.75695 17.7893C3.49268 17.9999 5.24982 18.0007 6.99927 17.9999C8.7489 18.0009 10.5057 17.9999 12.242 17.7893C12.9747 17.7003 13.5837 17.1042 13.7549 16.2963C13.9987 15.1455 14 13.8896 14 12.7047C13.9998 11.5196 14.0016 10.2636 13.7578 9.1129ZM3.99328 10.0048H2.98001V15.8485H2.0388V10.0048H1.044V9.04759H3.99328V10.0048ZM6.5497 15.8487H5.70305V15.2958C5.36669 15.7143 5.04735 15.9183 4.73623 15.9183C4.46352 15.9183 4.27587 15.7984 4.19118 15.5418C4.14509 15.3885 4.11656 15.1459 4.11656 14.7882V10.7812H4.96248V14.5121C4.96248 14.7273 4.96248 14.839 4.97016 14.8692C4.99046 15.0118 5.05466 15.084 5.16806 15.084C5.33779 15.084 5.51521 14.9421 5.70286 14.654V10.7812H6.54951L6.5497 15.8487ZM9.76382 14.3277C9.76382 14.7964 9.73474 15.134 9.67822 15.3488C9.56519 15.7258 9.33894 15.9183 9.0024 15.9183C8.70135 15.9183 8.4109 15.7369 8.12795 15.3577V15.8489H7.28203V9.04759H8.12795V11.2687C8.40121 10.9036 8.69129 10.719 9.0024 10.719C9.33894 10.719 9.56537 10.9114 9.67822 11.2907C9.73511 11.4946 9.76382 11.8297 9.76382 12.3095V14.3277ZM11.2647 13.4822V14.3805C11.2647 14.8496 11.4061 15.0838 11.6969 15.0838C11.9052 15.0838 12.0265 14.9609 12.0748 14.7156C12.0826 14.6658 12.0938 14.4617 12.0938 14.0935H12.9569V14.2274C12.9569 14.5234 12.9465 14.7273 12.9388 14.819C12.9105 15.0223 12.8439 15.2067 12.7413 15.3691C12.507 15.7371 12.1598 15.9185 11.7179 15.9185C11.2753 15.9185 10.9384 15.7456 10.6939 15.3996C10.5145 15.1459 10.4223 14.7465 10.4223 14.208V12.4331C10.4223 11.8914 10.504 11.4952 10.6838 11.2391C10.9282 10.8923 11.2649 10.7196 11.6971 10.7196C12.1216 10.7196 12.4581 10.8923 12.6952 11.2391C12.8724 11.4952 12.9571 11.8914 12.9571 12.4331V13.4822H11.2647Z" fill="white"/>
<path d="M11.6894 11.5458C11.4066 11.5458 11.2649 11.7802 11.2649 12.2487V12.7176H12.1108V12.2487C12.1106 11.7802 11.9692 11.5458 11.6894 11.5458Z" fill="white"/>
<path d="M8.54972 11.5458C8.41035 11.5458 8.26915 11.6173 8.12777 11.7691V14.8577C8.26897 15.0114 8.41035 15.084 8.54972 15.084C8.79371 15.084 8.91772 14.8577 8.91772 14.4001V12.2372C8.91772 11.7802 8.79371 11.5458 8.54972 11.5458Z" fill="white"/>
<path d="M9.02234 6.94241C9.33419 6.94241 9.65865 6.73676 9.99903 6.31354V6.87214H10.8541V1.75084H9.99903V5.66501C9.80955 5.95563 9.62994 6.09935 9.45893 6.09935C9.34443 6.09935 9.27712 6.0259 9.25847 5.88198C9.24804 5.85161 9.24804 5.73866 9.24804 5.52129V1.75084H8.39572V5.8004C8.39572 6.16208 8.42425 6.40684 8.47144 6.56187C8.5574 6.82132 8.74707 6.94241 9.02234 6.94241Z" fill="white"/>
<path d="M3.06982 4.08886V6.87214H4.01798V4.08886L5.15855 0H4.19978L3.55286 2.69871L2.87978 0H1.88205C2.08197 0.637011 2.28992 1.2772 2.48984 1.91481C2.794 2.8732 2.98385 3.59577 3.06982 4.08886Z" fill="white"/>
<path d="M6.42935 6.94241C6.8577 6.94241 7.19058 6.76753 7.42671 6.41815C7.60614 6.16188 7.6921 5.75811 7.6921 5.21381V3.42049C7.6921 2.873 7.60632 2.47281 7.42671 2.21416C7.19058 1.86379 6.85789 1.6889 6.42935 1.6889C6.00319 1.6889 5.67049 1.86379 5.43382 2.21416C5.25219 2.47281 5.16623 2.873 5.16623 3.42049V5.21381C5.16623 5.75811 5.25219 6.16188 5.43382 6.41815C5.67031 6.76753 6.00319 6.94241 6.42935 6.94241ZM6.02129 3.23449C6.02129 2.76065 6.15372 2.52442 6.42935 2.52442C6.70498 2.52442 6.83704 2.76045 6.83704 3.23449V5.38869C6.83704 5.86253 6.70498 6.09955 6.42935 6.09955C6.15372 6.09955 6.02129 5.86253 6.02129 5.38869V3.23449Z" fill="white"/>
</svg>
