<svg width="50" height="46" viewBox="0 0 50 46" fill="none" xmlns="http://www.w3.org/2000/svg">
<path d="M2.83019 44.2163C9.68554 37.3946 13.0503 29.8531 12.9245 21.5918C12.5472 21.6544 12.1384 21.6857 11.6981 21.6857L10.566 21.7796C3.52201 21.7796 2.44296e-06 18.0558 3.09405e-06 10.6082C3.71232e-06 3.53605 3.33334 -4.07973e-06 10 -3.49691e-06C17.6101 -2.83162e-06 21.4151 4.34966 21.4151 13.049C21.4151 19.8707 19.9057 26.0041 16.8868 31.449C14.6226 35.517 10.6604 40.3673 5 46L2.83019 44.2163ZM31.4151 44.2163C38.3333 37.3946 41.6981 29.8531 41.5094 21.5918C41.1321 21.6544 40.7547 21.6857 40.3774 21.6857L39.1509 21.7796C32.1069 21.7796 28.5849 18.0558 28.5849 10.6082C28.5849 3.53605 31.9182 -1.58076e-06 38.5849 -9.97939e-07C46.195 -3.32646e-07 50 4.34966 50 13.049C50 19.8708 48.4906 26.0041 45.4717 31.449C43.2075 35.517 39.2453 40.3673 33.5849 46L31.4151 44.2163Z" fill="#CF8A00"/>
</svg>
